<svg width="195.852" height="70.022" viewBox="0 0 195.852 70.022" xmlns="http://www.w3.org/2000/svg"><g id="svgGroup" stroke-linecap="round" fill-rule="evenodd" font-size="9pt" stroke="#000" stroke-width="0.25mm" fill="none" style="stroke:#000;stroke-width:0.25mm;fill:none"><path d="M 52.834 42.725 L 52.834 53.027 A 28.554 28.554 0 0 1 52.373 57.833 Q 51.885 60.415 50.886 62.445 A 12.792 12.792 0 0 1 48.537 65.796 Q 45.189 69.203 38.982 69.862 A 29.785 29.785 0 0 1 35.842 70.02 L 17.043 70.02 Q 3.521 70.02 0.728 59.32 A 24.966 24.966 0 0 1 0.002 53.027 L 0.002 48.828 L 9.816 48.828 L 9.816 52.539 A 14.108 14.108 0 0 0 9.963 54.65 Q 10.324 57.031 11.574 58.35 Q 12.865 59.713 15.368 60.074 A 13.789 13.789 0 0 0 17.336 60.205 L 35.5 60.205 Q 37.872 60.205 39.455 59.554 A 5.137 5.137 0 0 0 41.262 58.35 A 5.616 5.616 0 0 0 42.432 56.41 Q 42.753 55.544 42.899 54.467 A 14.42 14.42 0 0 0 43.019 52.539 L 43.019 43.115 A 14.157 14.157 0 0 0 42.88 41.059 Q 42.725 40.003 42.396 39.157 A 5.463 5.463 0 0 0 41.262 37.329 A 5.181 5.181 0 0 0 39.379 36.11 Q 37.815 35.498 35.5 35.498 L 2.004 35.498 L 2.004 0 L 51.027 0 L 51.027 10.01 L 12.014 10.01 L 12.014 25.733 L 35.842 25.733 A 28.184 28.184 0 0 1 40.557 26.1 Q 45.682 26.972 48.635 29.907 Q 52.834 34.082 52.834 42.725 Z M 122.853 10.01 L 122.853 60.01 A 9.788 9.788 0 0 1 122.072 63.892 A 10.055 10.055 0 0 1 119.924 67.09 A 10.055 10.055 0 0 1 116.726 69.238 Q 114.894 70.02 112.844 70.02 L 77.834 70.02 A 9.788 9.788 0 0 1 73.952 69.238 A 10.055 10.055 0 0 1 70.754 67.09 A 10.055 10.055 0 0 1 68.605 63.892 A 9.788 9.788 0 0 1 67.824 60.01 L 67.824 10.01 A 9.788 9.788 0 0 1 68.605 6.128 A 9.771 9.771 0 0 1 70.754 2.954 Q 72.121 1.611 73.952 0.806 A 9.533 9.533 0 0 1 77.834 0 L 112.844 0 A 9.533 9.533 0 0 1 116.726 0.806 A 10.622 10.622 0 0 1 119.924 2.954 Q 121.291 4.297 122.072 6.128 A 9.788 9.788 0 0 1 122.853 10.01 Z M 195.851 10.01 L 195.851 60.01 A 9.788 9.788 0 0 1 195.07 63.892 A 10.055 10.055 0 0 1 192.922 67.09 A 10.055 10.055 0 0 1 189.724 69.238 Q 187.892 70.02 185.842 70.02 L 150.832 70.02 A 9.788 9.788 0 0 1 146.95 69.238 A 10.055 10.055 0 0 1 143.752 67.09 A 10.055 10.055 0 0 1 141.603 63.892 A 9.788 9.788 0 0 1 140.822 60.01 L 140.822 10.01 A 9.788 9.788 0 0 1 141.603 6.128 A 9.771 9.771 0 0 1 143.752 2.954 Q 145.119 1.611 146.95 0.806 A 9.533 9.533 0 0 1 150.832 0 L 185.842 0 A 9.533 9.533 0 0 1 189.724 0.806 A 10.622 10.622 0 0 1 192.922 2.954 Q 194.289 4.297 195.07 6.128 A 9.788 9.788 0 0 1 195.851 10.01 Z M 112.844 10.01 L 77.834 10.01 L 77.834 60.01 L 112.844 60.01 L 112.844 10.01 Z M 185.842 10.01 L 150.832 10.01 L 150.832 60.01 L 185.842 60.01 L 185.842 10.01 Z" vector-effect="non-scaling-stroke"/></g></svg>