<svg width="167.45379028320312px" height="121.27770385742187px" xmlns="http://www.w3.org/2000/svg" viewBox="166.27310485839843 14.361148071289065 167.45379028320312 121.27770385742187" style="background: rgba(0, 0, 0, 0);" preserveAspectRatio="xMidYMid"><defs><linearGradient id="editing-gradow-gradient" x1="0" x2="1" y1="0.5" y2="0.5" gradientUnits="objectBoundingBox"><stop offset="0" stop-color="#f0f"></stop><stop offset="1" stop-color="#0ff"></stop></linearGradient><filter id="editing-gradow-filter" x="-100%" y="-100%" width="300%" height="300%"><feFlood flood-color="#fffcd9" result="flood"></feFlood><feComposite operator="in" in2="SourceAlpha" in="flood" result="shadow"></feComposite><feOffset dx="-4" dy="-4" in="SourceGraphic" result="offset-1"></feOffset><feOffset dx="4" dy="4" in="shadow" result="offset-2"></feOffset><feMerge><feMergeNode in="offset-2"></feMergeNode><feMergeNode in="offset-1"></feMergeNode></feMerge></filter></defs><g filter="url(#editing-gradow-filter)"><g transform="translate(197.03968706727028, 97.90999984741211)"><path d="M13.18-32.32L11.39-26.30L11.39-26.30Q15.10-26.62 17.41-26.62L17.41-26.62L17.41-26.62Q19.71-26.62 22.14-25.79L22.14-25.79L22.14-25.79Q24.58-24.96 26.37-23.55L26.37-23.55L26.37-23.55Q30.34-20.42 30.34-16.42L30.34-16.42L30.34-16.42Q30.34-12.42 28.90-9.22L28.90-9.22L28.90-9.22Q27.46-6.02 24.96-3.71L24.96-3.71L24.96-3.71Q19.65 1.28 11.58 1.28L11.58 1.28L11.58 1.28Q5.76 1.28 2.69-0.58L2.69-0.58L2.69-0.58Q-0.38-2.43-0.38-5.98L-0.38-5.98L-0.38-5.98Q-0.38-9.54 1.86-11.46L1.86-11.46L1.86-11.46Q4.54-6.91 10.24-6.91L10.24-6.91L10.24-6.91Q13.70-6.91 15.62-8.51L15.62-8.51L15.62-8.51Q17.54-10.11 17.54-13.18L17.54-13.18L17.54-13.18Q17.54-19.33 8.64-19.33L8.64-19.33L8.64-19.33Q5.25-19.33 3.07-19.07L3.07-19.07L9.09-42.24L24.13-42.24L24.13-42.24Q29.18-42.24 30.78-44.48L30.78-44.48L30.78-44.48Q32.45-43.01 32.45-39.74L32.45-39.74L32.45-39.74Q32.45-36.67 30.02-34.50L30.02-34.50L30.02-34.50Q27.58-32.32 24.13-32.32L24.13-32.32L13.18-32.32ZM35.33-15.23L35.33-15.23L35.33-15.23Q35.33-28.16 41.41-35.84L41.41-35.84L41.41-35.84Q47.49-43.52 57.92-43.52L57.92-43.52L57.92-43.52Q63.49-43.52 66.69-39.36L66.69-39.36L66.69-39.36Q69.89-35.20 69.89-28.26L69.89-28.26L69.89-28.26Q69.89-21.31 68.32-15.90L68.32-15.90L68.32-15.90Q66.75-10.50 63.94-6.66L63.94-6.66L63.94-6.66Q58.05 1.34 48.26 1.34L48.26 1.34L48.26 1.34Q41.66 1.34 38.50-2.72L38.50-2.72L38.50-2.72Q35.33-6.78 35.33-15.23ZM46.66-10.88L46.66-10.88L46.66-10.88Q46.66-4.42 48.77-4.42L48.77-4.42L48.77-4.42Q50.69-4.42 52.45-6.66L52.45-6.66L52.45-6.66Q54.21-8.90 55.62-12.67L55.62-12.67L55.62-12.67Q58.62-20.93 58.62-31.17L58.62-31.17L58.62-31.17Q58.62-34.62 58.08-36.19L58.08-36.19L58.08-36.19Q57.54-37.76 56.10-37.76L56.10-37.76L56.10-37.76Q54.66-37.76 52.96-35.26L52.96-35.26L52.96-35.26Q51.26-32.77 49.86-28.86L49.86-28.86L49.86-28.86Q46.66-19.97 46.66-10.88ZM72.83-1.60L72.45-9.47L80.45-15.62L85.44-19.71L85.44-19.71Q88-21.89 89.86-23.81L89.86-23.81L89.86-23.81Q93.25-27.20 93.25-30.46L93.25-30.46L93.25-30.46Q93.25-32.38 92-33.41L92-33.41L92-33.41Q90.75-34.43 88.93-34.43L88.93-34.43L88.93-34.43Q87.10-34.43 85.79-34.02L85.79-34.02L85.79-34.02Q84.48-33.60 83.33-32.90L83.33-32.90L83.33-32.90Q80.90-31.30 79.74-28.86L79.74-28.86L79.74-28.86Q78.14-28.93 77.09-30.27L77.09-30.27L77.09-30.27Q76.03-31.62 76.03-33.57L76.03-33.57L76.03-33.57Q76.03-35.52 77.25-37.34L77.25-37.34L77.25-37.34Q78.46-39.17 80.64-40.58L80.64-40.58L80.64-40.58Q85.38-43.52 91.87-43.52L91.87-43.52L91.87-43.52Q98.37-43.52 102.02-40.70L102.02-40.70L102.02-40.70Q105.66-37.89 105.66-33.09L105.66-33.09L105.66-33.09Q105.66-29.50 103.90-26.24L103.90-26.24L103.90-26.24Q102.14-22.98 97.47-19.65L97.47-19.65L90.56-14.78L86.40-12.03L81.09-8.77L83.33-8.51L83.33-8.51Q84.86-8.32 87.55-8.32L87.55-8.32L87.55-8.32Q90.24-8.32 92.48-8.61L92.48-8.61L92.48-8.61Q94.72-8.90 96.64-9.47L96.64-9.47L96.64-9.47Q100.86-10.62 102.21-12.22L102.21-12.22L102.21-12.22Q102.91-11.71 103.46-10.40L103.46-10.40L103.46-10.40Q104-9.09 104-7.49L104-7.49L104-7.49Q104-2.69 100.35-0.70L100.35-0.70L100.35-0.70Q96.70 1.28 89.22 1.28L89.22 1.28L89.22 1.28Q85.31 1.28 80.13 0.16L80.13 0.16L80.13 0.16Q74.94-0.96 72.83-1.60L72.83-1.60Z" fill="url(#editing-gradow-gradient)"></path></g></g><style>text {
  font-size: 64px;
  font-family: Arial Black;
  dominant-baseline: central;
  text-anchor: middle;
}</style></svg>